<svg xmlns="http://www.w3.org/2000/svg" viewBox="0 0 822.1 254.67"><g id="Capa_2" data-name="Capa 2"><g id="Capa_1-2" data-name="Capa 1"><g id="Layer_1-2" data-name="Layer 1-2"><path id="Layer_char" data-name="Layer char" d="M157,14.43q13.53,9.81,19.46,27h-7.75A44.49,44.49,0,0,0,152,19.7q-11.72-8.16-29-8.16a45.66,45.66,0,0,0-23.83,6.35A44.7,44.7,0,0,0,82.37,36.11Q76.19,48,76.19,64q0,15.84,6.18,27.7a44.7,44.7,0,0,0,16.82,18.22A45.57,45.57,0,0,0,123,116.24q17.31,0,29-8.16a44.51,44.51,0,0,0,16.65-21.52h7.75Q170.5,103.72,157,113.44t-34,9.73a53.62,53.62,0,0,1-28.28-7.51,51.13,51.13,0,0,1-19.37-21Q68.44,81.13,68.44,64t6.93-30.66A51.75,51.75,0,0,1,94.74,12.2,53.28,53.28,0,0,1,123,4.62Q143.47,4.62,157,14.43Z"/><path d="M258.05,40.56q9.9,9.9,9.9,29.18V122h-7.42V70.07q0-16.15-8.08-24.65t-22.1-8.49q-14.5,0-23.33,9.48t-8.82,28V122h-7.42V0h7.42V56.06q3.3-12.53,12.62-19a36.9,36.9,0,0,1,21.51-6.43Q248.17,30.67,258.05,40.56Z"/><path d="M348.57,39a38,38,0,0,1,13.69,20.2V32.48h7.42V122h-7.42V95.3a38,38,0,0,1-13.69,20.2q-10.06,7.66-24.73,7.67a43.79,43.79,0,0,1-22.17-5.53,38.21,38.21,0,0,1-15.09-16q-5.44-10.47-5.44-24.49t5.44-24.4a38.32,38.32,0,0,1,15.09-15.91,43.84,43.84,0,0,1,22.17-5.52Q338.51,31.33,348.57,39ZM298.7,48.47q-10,10.56-10,28.69,0,18.32,9.9,28.86t26.87,10.55a37.24,37.24,0,0,0,19-4.86,33.58,33.58,0,0,0,13.11-13.85,44.05,44.05,0,0,0,4.7-20.7,43.57,43.57,0,0,0-4.7-20.61,33.67,33.67,0,0,0-13.11-13.76,37.15,37.15,0,0,0-19-4.87Q308.67,37.92,298.7,48.47Z"/><path d="M407.6,36.19q8.73-5.52,22.26-5.52v8.08h-2.47q-13.53,0-22.76,7.58T395.4,70.9V122H388V32.48h7.42V52.27A29,29,0,0,1,407.6,36.19Z"/><path d="M501.25,39a38,38,0,0,1,13.68,20.2V32.48h7.42V122h-7.42V95.3a37.9,37.9,0,0,1-13.68,20.2q-10.06,7.66-24.74,7.67a43.84,43.84,0,0,1-22.17-5.53,38.27,38.27,0,0,1-15.09-16q-5.44-10.47-5.44-24.49t5.44-24.4a38.38,38.38,0,0,1,15.09-15.91,43.63,43.63,0,0,1,22.17-5.52Q491.2,31.33,501.25,39Zm-49.88,9.48q-10,10.56-10,28.69,0,18.32,9.9,28.86t26.87,10.55a37.24,37.24,0,0,0,19-4.86,33.58,33.58,0,0,0,13.11-13.85,44.05,44.05,0,0,0,4.7-20.7,43.57,43.57,0,0,0-4.7-20.61,33.67,33.67,0,0,0-13.11-13.76,37.15,37.15,0,0,0-19-4.87Q461.35,37.92,451.37,48.47Z"/><path d="M607.92,40.15a36.71,36.71,0,0,1,13.52,23.33h-7.75a28.39,28.39,0,0,0-11.21-18.8q-9.24-6.91-22.75-6.92A37.43,37.43,0,0,0,561.92,42a32.09,32.09,0,0,0-13,13.2Q544,64.14,544,77.16t4.95,21.93a32.06,32.06,0,0,0,13,13.19,37.32,37.32,0,0,0,17.81,4.29q13.51,0,22.75-6.92a28.39,28.39,0,0,0,11.21-18.8h7.75a36.72,36.72,0,0,1-13.52,23.49q-11,8.84-28,8.83a45.09,45.09,0,0,1-22.5-5.53A39.11,39.11,0,0,1,542,101.73q-5.61-10.38-5.6-24.57,0-14,5.6-24.4a39.11,39.11,0,0,1,15.42-15.91,45.12,45.12,0,0,1,22.5-5.52Q596.89,31.33,607.92,40.15Z"/><path d="M647,39.24V96.79q0,10.71,3.79,14.59t13.36,3.87h9.4V122H663.32q-12.36,0-18.05-5.77t-5.69-19.45V39.24H625.4V32.48h14.18V9.73H647V32.48h26.55v6.76Z"/><path d="M746.75,110.06A28.11,28.11,0,0,0,758,91.34h7.74a36.35,36.35,0,0,1-13.43,23.09q-11,8.73-27.95,8.74a45.13,45.13,0,0,1-22.51-5.53,39.15,39.15,0,0,1-15.41-15.91q-5.6-10.38-5.61-24.57,0-14,5.61-24.4a39.11,39.11,0,0,1,15.42-15.91,45.09,45.09,0,0,1,22.5-5.52q13,0,22.51,5.52a37.14,37.14,0,0,1,14.35,14.51,39.79,39.79,0,0,1,4.86,19.21,49.36,49.36,0,0,1-.82,8.74h-77q.15,12.52,5.19,21a31.59,31.59,0,0,0,13,12.53,38.35,38.35,0,0,0,17.56,4Q737.53,116.9,746.75,110.06ZM706.52,41.55a32.15,32.15,0,0,0-13.11,12.53q-5,8.41-5.19,20.78h70.57q.65-12.37-4.12-20.86a30.08,30.08,0,0,0-12.86-12.53A40.16,40.16,0,0,0,706.52,41.55Z"/><path d="M799.85,36.19q8.73-5.52,22.25-5.52v8.08h-2.47q-13.53,0-22.75,7.58T787.64,70.9V122h-7.42V32.48h7.42V52.27A29.07,29.07,0,0,1,799.85,36.19Z"/><path d="M69.15,193.44H31.67l-6.22,18.24H0l36.62-99.26H64.48l36.62,99.26H75.37Zm-6.23-18.38L50.48,138.3,37.9,175.06Z"/><path d="M189.12,141q8,9.06,8,24.89v45.81H172.93v-43q0-7.92-4.17-12.38a14.51,14.51,0,0,0-11.1-4.45q-7.35,0-11.66,4.67t-4.32,13.29v41.85H117.5v-78.9h24.18V147.2A26.12,26.12,0,0,1,151.79,136a29.72,29.72,0,0,1,15.77-4.1Q181.14,131.93,189.12,141Z"/><path d="M221.86,101.46q3.94-3.6,10.46-3.6t10.47,3.6a11.87,11.87,0,0,1,4,9.12,11.69,11.69,0,0,1-4,9q-4,3.6-10.47,3.61t-10.46-3.61a11.63,11.63,0,0,1-4-9A11.8,11.8,0,0,1,221.86,101.46Zm22.48,31.32v78.9H220.16v-78.9Z"/><path d="M393.24,140.91q8.34,9,8.34,25v45.81h-24v-43q0-7.5-4-11.67t-11-4.17q-7.21,0-11.38,4.45T347,169.83v41.85H322.82v-43q0-7.5-4-11.67T308,152.86q-7.22,0-11.45,4.38t-4.24,12.59v41.85H268.1v-78.9h24.18v13.43a23.51,23.51,0,0,1,9.54-10.46,29,29,0,0,1,15.06-3.82,30.48,30.48,0,0,1,16,4.17,26.24,26.24,0,0,1,10.46,12,31.55,31.55,0,0,1,11.24-11.73,29.54,29.54,0,0,1,15.77-4.39Q384.9,131.93,393.24,140.91Z"/><path d="M470.3,135.89a24.77,24.77,0,0,1,9.62,11.17V132.78h24v78.9h-24V197.4a24.72,24.72,0,0,1-9.62,11.17,28.43,28.43,0,0,1-15.55,4.1,31.92,31.92,0,0,1-17.47-4.88,33.43,33.43,0,0,1-12.16-14.06q-4.46-9.19-4.45-21.5t4.45-21.56a33.52,33.52,0,0,1,12.16-14,32,32,0,0,1,17.47-4.88A28.6,28.6,0,0,1,470.3,135.89ZM450,158.09q-4.74,5.1-4.74,14.14T450,186.37q4.73,5.1,12.51,5.09A16.35,16.35,0,0,0,475,186.23q4.88-5.23,4.88-14T475,158.16A16.47,16.47,0,0,0,462.52,153Q454.74,153,450,158.09Z"/><path d="M564.42,196v16.46h-9.19q-11.67,0-18.17-5.43t-6.49-17.94v-23h-9V150h9V134.62H551V150H564.3v16.13H551v23.29q0,3.69,1.61,5.15c1.08,1,2.88,1.45,5.42,1.45Z"/><path d="M594.73,233q3.94-3.6,10.46-3.6t10.46,3.6a11.8,11.8,0,0,1,4,9.12,11.63,11.63,0,0,1-4,9q-3.95,3.62-10.46,3.61t-10.46-3.61a11.63,11.63,0,0,1-4-9A11.8,11.8,0,0,1,594.73,233Zm22.49-100.18v78.9H593v-78.9Z"/><path d="M698.87,136.67a35.68,35.68,0,0,1,14.56,14.07q5.31,9.19,5.31,21.49t-5.31,21.5a35.65,35.65,0,0,1-14.56,14.06,47.75,47.75,0,0,1-42.07,0,35.64,35.64,0,0,1-14.63-14.06q-5.31-9.19-5.31-21.5t5.31-21.49a35.63,35.63,0,0,1,14.64-14.07,47.75,47.75,0,0,1,42.07,0Zm-32.66,21.07q-4.74,5-4.74,14.49t4.74,14.43a15.48,15.48,0,0,0,11.66,4.94,15.28,15.28,0,0,0,11.6-4.94q4.66-4.95,4.66-14.43t-4.66-14.49a15.2,15.2,0,0,0-11.6-5A15.4,15.4,0,0,0,666.21,157.74Z"/><path d="M810,141q8,9.06,8,24.89v45.81H793.82v-43q0-7.92-4.17-12.38a14.51,14.51,0,0,0-11.1-4.45q-7.37,0-11.67,4.67t-4.31,13.29v41.85H738.39v-78.9h24.18V147.2A26,26,0,0,1,772.68,136a29.67,29.67,0,0,1,15.77-4.1Q802,131.93,810,141Z"/></g></g></g></svg>