<svg xmlns="http://www.w3.org/2000/svg" viewBox="0 0 567.41 297.3"><defs><style>.cls-1{fill:#010101;}</style></defs><g id="Capa_2" data-name="Capa 2"><g id="Capa_1-2" data-name="Capa 1"><g id="Capa_2-2" data-name="Capa 2"><g id="Capa_1-2-2" data-name="Capa 1-2"><g id="Layer_2" data-name="Layer 2"><g id="Layer_1-2" data-name="Layer 1-2"><path class="cls-1" d="M64.25,103.06h40.56v2.7H61.24V0h3Z"/><path class="cls-1" d="M178.72,28.61A35.7,35.7,0,0,1,192.88,43,45.68,45.68,0,0,1,198,65.2a45.65,45.65,0,0,1-5.15,22.16,35.67,35.67,0,0,1-14.16,14.42,43.11,43.11,0,0,1-40.53,0A36,36,0,0,1,124,87.36a44.94,44.94,0,0,1-5.15-22.16A45,45,0,0,1,124,43a36.2,36.2,0,0,1,14.16-14.43,43.38,43.38,0,0,1,40.56,0Zm-38.38,2a32.72,32.72,0,0,0-13.46,13.07q-5.14,8.8-5.14,21.56t5.14,21.56a32.75,32.75,0,0,0,13.46,13.06,40.18,40.18,0,0,0,36.13,0,32.93,32.93,0,0,0,13.36-13Q195,78.14,195,65.2t-5.15-21.63a33,33,0,0,0-13.36-13A40.24,40.24,0,0,0,140.34,30.57Z"/><path class="cls-1" d="M380.62,28.61A35.63,35.63,0,0,1,394.78,43a45.68,45.68,0,0,1,5.15,22.16,45.43,45.43,0,0,1-5.15,22.16,35.67,35.67,0,0,1-14.16,14.42,43.38,43.38,0,0,1-40.56,0A36.31,36.31,0,0,1,325.9,87.36a45.18,45.18,0,0,1-5.15-22.16A45.21,45.21,0,0,1,325.9,43a36.33,36.33,0,0,1,14.16-14.43A43.44,43.44,0,0,1,380.62,28.61Zm-38.38,2A32.73,32.73,0,0,0,328.8,43.64q-5.15,8.8-5.15,21.56t5.15,21.56a32.71,32.71,0,0,0,13.44,13.06,39,39,0,0,0,18.11,4.29,38.56,38.56,0,0,0,18-4.29,32.9,32.9,0,0,0,13.4-13q5.14-8.72,5.15-21.64t-5.15-21.63a33,33,0,0,0-13.36-13,40.24,40.24,0,0,0-36.13,0Z"/><path class="cls-1" d="M108,220.06a57.44,57.44,0,0,1-22.84,22.56q-14.81,8.22-34.79,8.21H0V124.53H50.31q20,0,34.89,7.95A55.19,55.19,0,0,1,108,154.7,66.08,66.08,0,0,1,116,187.36,65.94,65.94,0,0,1,108,220.06Zm-36.4-9q8.92-8.38,8.93-23.72t-8.93-23.66q-8.93-8.44-24.46-8.47H35.16v64.22h12Q62.69,219.44,71.55,211.05Z"/><path class="cls-1" d="M215.91,207.09h-66.2q.89,16.95,14.8,17a14.15,14.15,0,0,0,8.57-2.51,12.47,12.47,0,0,0,4.59-6.6h37.12a42.69,42.69,0,0,1-8.74,19,47.07,47.07,0,0,1-17.14,13.3,53.21,53.21,0,0,1-22.66,4.82,55.23,55.23,0,0,1-26.5-6.12,43.53,43.53,0,0,1-17.93-17.84,55.87,55.87,0,0,1-6.42-27.38,55.41,55.41,0,0,1,6.47-27.26,43.56,43.56,0,0,1,18-17.81,55.54,55.54,0,0,1,26.4-6.12,55.55,55.55,0,0,1,26.41,6.12A43.33,43.33,0,0,1,210.46,173a52.07,52.07,0,0,1,6.33,26A43.72,43.72,0,0,1,215.91,207.09ZM177,180.86a15.2,15.2,0,0,0-10.71-3.92A16.37,16.37,0,0,0,155,180.86c-2.92,2.63-4.59,6.48-5.1,11.6h31.24q.18-7.64-4.11-11.57Z"/><path class="cls-1" d="M289.41,159.13a42,42,0,0,1,14.83,25.5H271.39a13,13,0,0,0-5.08-8,16.06,16.06,0,0,0-9.37-2.68,9.25,9.25,0,0,0-6,1.7,5.73,5.73,0,0,0-2.05,4.72c0,2.51,1.46,4.38,4.38,5.63a92.85,92.85,0,0,0,14.35,4.19,141.4,141.4,0,0,1,19.19,5.35A32.56,32.56,0,0,1,300,204.8q5.63,6.42,5.63,17.31a26.16,26.16,0,0,1-4.81,15.56,31.58,31.58,0,0,1-14,10.61,56.17,56.17,0,0,1-21.68,3.84q-21.06,0-33.54-9.17t-15.17-26h33.71a11.06,11.06,0,0,0,4.74,8.21A17.68,17.68,0,0,0,265,227.84a9.56,9.56,0,0,0,6.25-1.79,5.78,5.78,0,0,0,2.14-4.59,6.56,6.56,0,0,0-4.59-6.25,78.39,78.39,0,0,0-14.53-3.93,122.43,122.43,0,0,1-18.75-5.07,32,32,0,0,1-12.75-8.93q-5.44-6.12-5.44-17a27.18,27.18,0,0,1,10.5-22.19q10.5-8.58,30-8.57Q277.65,149.49,289.41,159.13Z"/><path class="cls-1" d="M312.79,110.15a21.61,21.61,0,0,1,15-5.09q9.3,0,14.82,5.09a16.81,16.81,0,0,1,5.52,12.93,16,16,0,0,1-5.61,12.49,21.38,21.38,0,0,1-14.73,5,21.84,21.84,0,0,1-15-5,15.9,15.9,0,0,1-5.72-12.49A16.57,16.57,0,0,1,312.79,110.15Zm32.29,40.59V250.83H309.92V150.74Z"/><path class="cls-1" d="M408.88,151.37A27.92,27.92,0,0,1,420.38,164V148.06h35v99A58.56,58.56,0,0,1,450,272.35a41.7,41.7,0,0,1-16.61,18.1q-11.23,6.84-28.36,6.85-23.39,0-37.21-10.89t-16.19-29.86h34.44a12.4,12.4,0,0,0,5.36,7.65,20,20,0,0,0,11.05,2.67q17.83,0,17.84-19.87V232.2a27.92,27.92,0,0,1-11.5,12.56,35.43,35.43,0,0,1-18.34,4.59,39.26,39.26,0,0,1-21.59-6.11,41.58,41.58,0,0,1-15.07-17.8,63.43,63.43,0,0,1-5.54-27.38,62.83,62.83,0,0,1,5.54-27.31A41.68,41.68,0,0,1,369,153a39.26,39.26,0,0,1,21.59-6.11A35.38,35.38,0,0,1,408.88,151.37Zm-20,31.58q-5.06,5.45-5.07,15.08t5.07,15.29a17.4,17.4,0,0,0,13.3,5.44,17.12,17.12,0,0,0,13-5.54q5.16-5.53,5.17-15.16c0-6.32-1.72-11.3-5.17-15a17.1,17.1,0,0,0-13-5.52,17.37,17.37,0,0,0-13.3,5.44Z"/><path class="cls-1" d="M557.59,161.35q9.82,11.51,9.82,31.33v58.09h-34.8V197.13c0-5.81-1.53-10.37-4.59-13.64a15.76,15.76,0,0,0-12.23-4.91,16.09,16.09,0,0,0-12.49,5.08q-4.57,5.09-4.58,14v53.17H463.55V150.74h35.17v16.82a32.43,32.43,0,0,1,12.49-12.85,37.29,37.29,0,0,1,19.26-4.81Q547.78,149.86,557.59,161.35Z"/><path class="cls-1" d="M281.07,25.09a36.12,36.12,0,0,1,13,19.68V18.63h2.85v84.13a37.59,37.59,0,0,1-5,19.6,33.49,33.49,0,0,1-13.14,12.7A37.32,37.32,0,0,1,261,139.41q-14.72,0-24.45-7.13A35.94,35.94,0,0,1,223.26,113h3a33,33,0,0,0,12.32,17.35q8.78,6.44,22.46,6.43a33.88,33.88,0,0,0,16.83-4.19,30.68,30.68,0,0,0,11.86-11.87,35.33,35.33,0,0,0,4.37-17.88V73.62a36.26,36.26,0,0,1-13,19.68q-9.68,7.5-23.66,7.5a41.48,41.48,0,0,1-20.6-5,34.61,34.61,0,0,1-13.92-14.42A46.66,46.66,0,0,1,218,59.21a46.73,46.73,0,0,1,5-22.15,34.69,34.69,0,0,1,14-14.43,41.55,41.55,0,0,1,20.59-5Q271.4,17.57,281.07,25.09Zm-43-.16a31.79,31.79,0,0,0-12.69,13.45,45,45,0,0,0-4.48,20.83A45,45,0,0,0,225.43,80a31.67,31.67,0,0,0,12.7,13.44,38.55,38.55,0,0,0,19.31,4.66,36.73,36.73,0,0,0,18.84-4.88,34.35,34.35,0,0,0,13.08-13.7,42.29,42.29,0,0,0,4.72-20.34,42.21,42.21,0,0,0-4.72-20.35,34.4,34.4,0,0,0-13.08-13.67,36.63,36.63,0,0,0-18.84-4.88A38.46,38.46,0,0,0,238.13,25Z"/></g></g></g></g></g></g></svg>